<?xml version="1.0" encoding="utf-8"?>
<!-- Generator: Adobe Illustrator 17.0.0, SVG Export Plug-In . SVG Version: 6.00 Build 0)  -->
<!DOCTYPE svg PUBLIC "-//W3C//DTD SVG 1.1//EN" "http://www.w3.org/Graphics/SVG/1.1/DTD/svg11.dtd">
<svg version="1.1" id="Layer_1" xmlns="http://www.w3.org/2000/svg" xmlns:xlink="http://www.w3.org/1999/xlink" x="0px" y="0px"
	 width="57px" height="58px" viewBox="0 0 57 58" enable-background="new 0 0 57 58" xml:space="preserve">
<path fill="#FFFFFF" d="M15.145,46.941c3.707,2.87,8.359,4.595,13.406,4.595c5.522,0,10.558-2.051,14.402-5.42
	c0.046-0.04,0.023-0.069-0.023-0.04c-1.724,1.151-6.64,3.666-14.379,3.666c-6.726,0-10.977-1.501-13.377-2.841
	C15.128,46.878,15.111,46.912,15.145,46.941 M30.034,48.058c5.38,0,11.292-1.467,14.827-4.371c0.968-0.79,1.89-1.845,2.715-3.26
	c0.476-0.813,0.94-1.781,1.318-2.732c0.017-0.046-0.012-0.069-0.046-0.018c-3.288,4.841-12.81,7.86-22.64,7.86
	c-6.95,0-14.426-2.222-17.353-6.468c-0.029-0.04-0.058-0.023-0.04,0.023C11.542,44.89,19.814,48.058,30.034,48.058 M24.157,38.44
	c-11.189,0-16.465-5.214-17.422-8.772c-0.012-0.051-0.046-0.04-0.046,0.006c0,1.197,0.12,2.744,0.327,3.77
	c0.097,0.498,0.504,1.283,1.1,1.908c2.71,2.824,9.464,6.782,21.162,6.782c15.938,0,19.582-5.31,20.326-7.057
	c0.533-1.25,0.808-3.507,0.808-5.403c0-0.459-0.011-0.825-0.029-1.186c0-0.057-0.034-0.063-0.045-0.005
	C49.541,32.756,35.924,38.44,24.157,38.44 M8.797,20.296c-0.641,1.272-1.352,3.42-1.564,4.531c-0.091,0.476-0.051,0.705,0.115,1.06
	c1.34,2.848,8.124,7.402,23.947,7.402c9.653,0,17.152-2.372,18.366-6.703c0.224-0.796,0.235-1.638-0.051-2.772
	c-0.321-1.267-0.922-2.745-1.432-3.782c-0.017-0.034-0.046-0.028-0.04,0.012c0.189,5.677-15.64,9.338-23.626,9.338
	c-8.651,0-15.869-3.449-15.869-7.803c0-0.418,0.086-0.836,0.195-1.272C8.849,20.267,8.815,20.261,8.797,20.296 M42.987,13.324
	c0.092,0.143,0.138,0.298,0.138,0.504c0,2.429-7.43,6.726-19.26,6.726c-8.691,0-10.318-3.226-10.318-5.277
	c0-0.733,0.28-1.484,0.899-2.245c0.034-0.046,0.006-0.063-0.034-0.029c-1.129,0.957-2.166,2.034-3.076,3.197
	c-0.436,0.55-0.705,1.037-0.705,1.329c0,4.251,10.655,7.333,20.618,7.333c10.616,0,15.353-3.466,15.353-6.514
	c0-1.089-0.424-1.724-1.506-2.956c-0.705-0.802-1.37-1.455-2.074-2.097C42.987,13.267,42.965,13.29,42.987,13.324 M39.733,10.895
	c-3.277-1.965-7.081-3.082-11.182-3.082c-4.131,0-8.049,1.157-11.338,3.173c-0.985,0.608-1.541,1.095-1.541,1.719
	c0,1.845,4.308,3.827,11.95,3.827c7.563,0,13.429-2.171,13.429-4.262C41.051,11.771,40.616,11.422,39.733,10.895"/>
</svg>
