<?xml version="1.0" encoding="utf-8"?>
<!-- Generator: Adobe Illustrator 17.0.0, SVG Export Plug-In . SVG Version: 6.00 Build 0)  -->
<!DOCTYPE svg PUBLIC "-//W3C//DTD SVG 1.1//EN" "http://www.w3.org/Graphics/SVG/1.1/DTD/svg11.dtd">
<svg version="1.1" id="Layer_1" xmlns="http://www.w3.org/2000/svg" xmlns:xlink="http://www.w3.org/1999/xlink" x="0px" y="0px"
	 width="32px" height="32.5px" viewBox="0 0 32 32.5" enable-background="new 0 0 32 32.5" xml:space="preserve">
<g>
	<g>
		<path fill="#FFFFFF" d="M16.167,30.5C8.079,30.5,1.5,23.92,1.5,15.833S8.079,1.167,16.167,1.167s14.667,6.58,14.667,14.667
			S24.255,30.5,16.167,30.5z M16.167,4.167C9.733,4.167,4.5,9.4,4.5,15.833S9.733,27.5,16.167,27.5s11.667-5.233,11.667-11.667
			S22.601,4.167,16.167,4.167z"/>
	</g>
	<rect x="7.5" y="14" fill="#FFFFFF" width="17.333" height="3.667"/>
</g>
<g>
	<g>
		<path fill="#FFFFFF" d="M-32.198,115.833c-8.088,0-14.667-6.58-14.667-14.667S-40.286,86.5-32.198,86.5s14.667,6.58,14.667,14.667
			S-24.111,115.833-32.198,115.833z M-32.198,89.5c-6.434,0-11.667,5.233-11.667,11.667s5.233,11.667,11.667,11.667
			s11.667-5.233,11.667-11.667S-25.765,89.5-32.198,89.5z"/>
	</g>
	<polygon fill="#FFFFFF" points="-23.785,97.133 -25.607,95.302 -34.023,103.678 -39.227,98.411 -41.064,100.226 -35.854,105.5 
		-35.863,105.509 -34.041,107.34 -34.038,107.338 -34.036,107.34 -32.198,105.524 -32.207,105.515 	"/>
</g>
</svg>
