<?xml version="1.0" encoding="utf-8"?>
<!-- Generator: Adobe Illustrator 17.0.0, SVG Export Plug-In . SVG Version: 6.00 Build 0)  -->
<!DOCTYPE svg PUBLIC "-//W3C//DTD SVG 1.1//EN" "http://www.w3.org/Graphics/SVG/1.1/DTD/svg11.dtd">
<svg version="1.1" id="Layer_1" xmlns="http://www.w3.org/2000/svg" xmlns:xlink="http://www.w3.org/1999/xlink" x="0px" y="0px"
	 width="32px" height="32.5px" viewBox="0 0 32 32.5" enable-background="new 0 0 32 32.5" xml:space="preserve">
<g>
	<g>
		<path fill="#FFFFFF" d="M51.417,32.333c-8.088,0-14.667-6.58-14.667-14.667S43.329,3,51.417,3s14.667,6.58,14.667,14.667
			S59.505,32.333,51.417,32.333z M51.417,6C44.983,6,39.75,11.234,39.75,17.667s5.233,11.667,11.667,11.667
			S63.084,24.1,63.084,17.667S57.851,6,51.417,6z"/>
	</g>
	<rect x="42.75" y="15.833" fill="#FFFFFF" width="17.333" height="3.667"/>
</g>
<g>
	<g>
		<path fill="#FFFFFF" d="M16,30.917c-8.088,0-14.667-6.58-14.667-14.667S7.912,1.583,16,1.583s14.667,6.58,14.667,14.667
			S24.088,30.917,16,30.917z M16,4.583c-6.434,0-11.667,5.233-11.667,11.667S9.566,27.917,16,27.917s11.667-5.233,11.667-11.667
			S22.434,4.583,16,4.583z"/>
	</g>
	<polygon fill="#FFFFFF" points="24.414,12.216 22.591,10.385 14.175,18.761 8.972,13.494 7.134,15.309 12.344,20.583 
		12.335,20.592 14.158,22.423 14.16,22.421 14.162,22.423 16,20.607 15.991,20.598 	"/>
</g>
</svg>
