<?xml version="1.0" encoding="utf-8"?>
<!-- Generator: Adobe Illustrator 17.0.0, SVG Export Plug-In . SVG Version: 6.00 Build 0)  -->
<!DOCTYPE svg PUBLIC "-//W3C//DTD SVG 1.1//EN" "http://www.w3.org/Graphics/SVG/1.1/DTD/svg11.dtd">
<svg version="1.1" id="Layer_1" xmlns="http://www.w3.org/2000/svg" xmlns:xlink="http://www.w3.org/1999/xlink" x="0px" y="0px"
	 width="33.692px" height="53.353px" viewBox="0 0 33.692 53.353" enable-background="new 0 0 33.692 53.353" xml:space="preserve">
<g>
	<path fill="#010101" d="M26.884,2.694c0.192,0,0.384,0.073,0.53,0.22c0.293,0.293,0.293,0.768,0,1.061L6.48,24.909
		c-0.4,0.4-0.62,0.935-0.62,1.506s0.22,1.106,0.62,1.506l20.934,20.934c0.293,0.293,0.293,0.768,0,1.061s-0.768,0.293-1.061,0
		L5.419,28.981c-0.684-0.683-1.06-1.595-1.06-2.567c0-0.972,0.376-1.883,1.06-2.566L26.354,2.914
		C26.5,2.768,26.692,2.694,26.884,2.694z"/>
</g>
<path fill="none" stroke="#010101" stroke-width="1.5" stroke-linecap="round" stroke-linejoin="round" stroke-miterlimit="10" d="
	M55.362-59.803l20.934,20.934c1.12,1.12,1.12,2.953,0,4.073L55.362-13.862"/>
</svg>
