<?xml version="1.0" encoding="utf-8"?>
<!-- Generator: Adobe Illustrator 17.0.0, SVG Export Plug-In . SVG Version: 6.00 Build 0)  -->
<!DOCTYPE svg PUBLIC "-//W3C//DTD SVG 1.1//EN" "http://www.w3.org/Graphics/SVG/1.1/DTD/svg11.dtd">
<svg version="1.1" id="Layer_1" xmlns="http://www.w3.org/2000/svg" xmlns:xlink="http://www.w3.org/1999/xlink" x="0px" y="0px"
	 width="81.833px" height="82.5px" viewBox="0 0 81.833 82.5" enable-background="new 0 0 81.833 82.5" xml:space="preserve">
<g>
	<g>
		<path fill="#FFFFFF" d="M49.708-2.917c-8.088,0-14.667-6.58-14.667-14.667S41.621-32.25,49.708-32.25s14.667,6.58,14.667,14.667
			S57.796-2.917,49.708-2.917z M49.708-29.25c-6.434,0-11.667,5.233-11.667,11.667S43.275-5.917,49.708-5.917
			s11.667-5.233,11.667-11.667S56.142-29.25,49.708-29.25z"/>
	</g>
	<rect x="41.042" y="-19.417" fill="#FFFFFF" width="17.333" height="3.667"/>
</g>
<g>
	<g>
		<path fill="#FFFFFF" d="M14.292-4.333C6.204-4.333-0.375-10.913-0.375-19s6.579-14.667,14.667-14.667S28.958-27.087,28.958-19
			S22.379-4.333,14.292-4.333z M14.292-30.667C7.858-30.667,2.625-25.433,2.625-19S7.858-7.333,14.292-7.333
			S25.958-12.567,25.958-19S20.725-30.667,14.292-30.667z"/>
	</g>
	<polygon fill="#FFFFFF" points="22.705,-23.034 20.883,-24.865 12.467,-16.489 7.263,-21.756 5.426,-19.941 10.636,-14.667 
		10.627,-14.658 12.449,-12.827 12.452,-12.829 12.454,-12.827 14.291,-14.643 14.283,-14.652 	"/>
</g>
<g>
	<g>
		<circle fill="#BCBEC0" cx="41.042" cy="41.518" r="39.25"/>
		<path fill="#A7A9AC" d="M41.042,81.268c-21.918,0-39.75-17.832-39.75-39.75s17.832-39.75,39.75-39.75s39.75,17.832,39.75,39.75
			S62.96,81.268,41.042,81.268z M41.042,2.768c-21.367,0-38.75,17.383-38.75,38.75s17.383,38.75,38.75,38.75
			s38.75-17.383,38.75-38.75S62.409,2.768,41.042,2.768z"/>
	</g>
	<g>
		<defs>
			<circle id="SVGID_1_" cx="41.042" cy="40.518" r="39.25"/>
		</defs>
		<clipPath id="SVGID_2_">
			<use xlink:href="#SVGID_1_"  overflow="visible"/>
		</clipPath>
		<g clip-path="url(#SVGID_2_)">
			<path fill="#FFFFFF" d="M16.96,91.269c5.671,3.143,14.126,5.13,23.599,5.13c17.17,0,30.926-6.52,30.926-14.609
				c0-0.679,0.022-0.973-0.162-2.051c-0.187-1.1-0.426-2.594-0.745-4.305c-1.203-6.723-3.393-17.094-6.057-22.294
				c-1.817-4.062-7.294-7.369-14.482-8.968c-0.059-0.013-0.116-0.034-0.184-0.044c0.089-0.064,0.176-0.135,0.271-0.197
				c3.416-2.262,5.978-5.688,7.131-9.717c0.439-1.51,0.682-3.097,0.682-4.756c0-9.602-7.782-17.36-17.38-17.36
				c-9.588,0-17.377,7.758-17.377,17.36c0,1.694,0.265,3.316,0.718,4.851c1.145,3.909,3.626,7.233,6.916,9.481
				c0.156,0.111,0.298,0.237,0.461,0.338c-0.099,0.018-0.212,0.059-0.323,0.079c-7.1,1.606-12.522,4.888-14.333,8.919
				c-2.616,5.126-4.795,15.307-6.023,22.039"/>
		</g>
	</g>
</g>
</svg>
