<?xml version="1.0" encoding="utf-8"?>
<!-- Generator: Adobe Illustrator 17.0.0, SVG Export Plug-In . SVG Version: 6.00 Build 0)  -->
<!DOCTYPE svg PUBLIC "-//W3C//DTD SVG 1.1//EN" "http://www.w3.org/Graphics/SVG/1.1/DTD/svg11.dtd">
<svg version="1.1" id="Layer_1" xmlns="http://www.w3.org/2000/svg" xmlns:xlink="http://www.w3.org/1999/xlink" x="0px" y="0px"
	 width="47.442px" height="26.667px" viewBox="-7.725 13.177 47.442 26.667" enable-background="new -7.725 13.177 47.442 26.667"
	 xml:space="preserve">
<g>
	<path fill="#010101" d="M-7.725,15.527c0-0.192,0.073-0.384,0.22-0.53c0.293-0.293,0.768-0.293,1.061,0L14.49,35.931
		c0.4,0.4,0.935,0.62,1.506,0.62s1.106-0.22,1.506-0.62l20.934-20.934c0.293-0.293,0.768-0.293,1.061,0s0.293,0.768,0,1.061
		L18.562,36.992c-0.683,0.684-1.595,1.06-2.567,1.06s-1.883-0.376-2.566-1.06L-7.505,16.057
		C-7.651,15.911-7.725,15.719-7.725,15.527z"/>
</g>
</svg>
