<?xml version="1.0" encoding="utf-8"?>
<!-- Generator: Adobe Illustrator 17.0.0, SVG Export Plug-In . SVG Version: 6.00 Build 0)  -->
<!DOCTYPE svg PUBLIC "-//W3C//DTD SVG 1.1//EN" "http://www.w3.org/Graphics/SVG/1.1/DTD/svg11.dtd">
<svg version="1.1" id="Layer_1" xmlns="http://www.w3.org/2000/svg" xmlns:xlink="http://www.w3.org/1999/xlink" x="0px" y="0px"
	 width="24px" height="24px" viewBox="0 0 24 24" enable-background="new 0 0 24 24" xml:space="preserve">
<g>
	<path fill="#FFFFFF" d="M22.9,1H18c0-0.6-0.4-1-1-1s-1,0.4-1,1H8c0-0.6-0.4-1-1-1S6,0.4,6,1H1.1C0.5,1,0,1.5,0,2.1v20.8
		C0,23.5,0.5,24,1.1,24h21.8c0.6,0,1.1-0.5,1.1-1.1V2.1C24,1.5,23.5,1,22.9,1z M22,22H2V8h20V22z M22,7H2V3h4v1c0,0.6,0.4,1,1,1
		s1-0.4,1-1V3h8v1c0,0.6,0.4,1,1,1s1-0.4,1-1V3h4V7z"/>
	<path fill="#FFFFFF" d="M8.5,18.5c0.4,0.4,1,0.4,1.4,0l2.1-2.1l2.1,2.1c0.4,0.4,1,0.4,1.4,0s0.4-1,0-1.4L13.4,15l2.1-2.1
		c0.4-0.4,0.4-1,0-1.4s-1-0.4-1.4,0L12,13.6l-2.1-2.1c-0.4-0.4-1-0.4-1.4,0s-0.4,1,0,1.4l2.1,2.1l-2.1,2.1
		C8.1,17.5,8.1,18.1,8.5,18.5z"/>
</g>
</svg>
